<mxfile host="65bd71144e">
    <diagram id="S41Ij-kwdyT3CQB6zLDD" name="Page-1">
        <mxGraphModel dx="640" dy="540" grid="1" gridSize="10" guides="1" tooltips="1" connect="1" arrows="1" fold="1" page="1" pageScale="1" pageWidth="850" pageHeight="1100" math="0" shadow="0">
            <root>
                <mxCell id="0"/>
                <mxCell id="1" parent="0"/>
                <mxCell id="6" value="Persona" style="swimlane;fontStyle=0;align=center;verticalAlign=top;childLayout=stackLayout;horizontal=1;startSize=26;horizontalStack=0;resizeParent=1;resizeParentMax=0;resizeLast=0;collapsible=1;marginBottom=0;fillColor=none;fontColor=#006EAF;strokeColor=#006EAF;" vertex="1" parent="1">
                    <mxGeometry x="40" y="40" width="130" height="88" as="geometry"/>
                </mxCell>
                <mxCell id="7" value="Nombre&#10;Fecha de nacimiento&#10;/Edad" style="text;strokeColor=none;fillColor=none;align=left;verticalAlign=top;spacingLeft=4;spacingRight=4;overflow=hidden;rotatable=0;points=[[0,0.5],[1,0.5]];portConstraint=eastwest;fontColor=#006EAF;" vertex="1" parent="6">
                    <mxGeometry y="26" width="130" height="54" as="geometry"/>
                </mxCell>
                <mxCell id="8" value="" style="line;strokeWidth=1;fillColor=none;align=left;verticalAlign=middle;spacingTop=-1;spacingLeft=3;spacingRight=3;rotatable=0;labelPosition=right;points=[];portConstraint=eastwest;strokeColor=inherit;" vertex="1" parent="6">
                    <mxGeometry y="80" width="130" height="8" as="geometry"/>
                </mxCell>
                <mxCell id="10" value="Empresa" style="swimlane;fontStyle=0;align=center;verticalAlign=top;childLayout=stackLayout;horizontal=1;startSize=26;horizontalStack=0;resizeParent=1;resizeParentMax=0;resizeLast=0;collapsible=1;marginBottom=0;fillColor=none;fontColor=#006EAF;strokeColor=#006EAF;" vertex="1" parent="1">
                    <mxGeometry x="400" y="50" width="120" height="68" as="geometry"/>
                </mxCell>
                <mxCell id="11" value="Nombre&#10;Dirección" style="text;strokeColor=none;fillColor=none;align=left;verticalAlign=top;spacingLeft=4;spacingRight=4;overflow=hidden;rotatable=0;points=[[0,0.5],[1,0.5]];portConstraint=eastwest;fontColor=#006EAF;" vertex="1" parent="10">
                    <mxGeometry y="26" width="120" height="34" as="geometry"/>
                </mxCell>
                <mxCell id="12" value="" style="line;strokeWidth=1;fillColor=none;align=left;verticalAlign=middle;spacingTop=-1;spacingLeft=3;spacingRight=3;rotatable=0;labelPosition=right;points=[];portConstraint=eastwest;strokeColor=inherit;" vertex="1" parent="10">
                    <mxGeometry y="60" width="120" height="8" as="geometry"/>
                </mxCell>
                <mxCell id="16" value="Departamento" style="swimlane;fontStyle=0;align=center;verticalAlign=top;childLayout=stackLayout;horizontal=1;startSize=26;horizontalStack=0;resizeParent=1;resizeParentMax=0;resizeLast=0;collapsible=1;marginBottom=0;fillColor=none;fontColor=#006EAF;strokeColor=#006EAF;" vertex="1" parent="1">
                    <mxGeometry x="220" y="160" width="120" height="58" as="geometry"/>
                </mxCell>
                <mxCell id="17" value="Nombre" style="text;strokeColor=none;fillColor=none;align=left;verticalAlign=top;spacingLeft=4;spacingRight=4;overflow=hidden;rotatable=0;points=[[0,0.5],[1,0.5]];portConstraint=eastwest;fontColor=#006EAF;" vertex="1" parent="16">
                    <mxGeometry y="26" width="120" height="24" as="geometry"/>
                </mxCell>
                <mxCell id="18" value="" style="line;strokeWidth=1;fillColor=none;align=left;verticalAlign=middle;spacingTop=-1;spacingLeft=3;spacingRight=3;rotatable=0;labelPosition=right;points=[];portConstraint=eastwest;strokeColor=inherit;" vertex="1" parent="16">
                    <mxGeometry y="50" width="120" height="8" as="geometry"/>
                </mxCell>
                <mxCell id="19" value="Oficina" style="swimlane;fontStyle=0;align=center;verticalAlign=top;childLayout=stackLayout;horizontal=1;startSize=26;horizontalStack=0;resizeParent=1;resizeParentMax=0;resizeLast=0;collapsible=1;marginBottom=0;strokeColor=#006EAF;fontFamily=Helvetica;fontSize=12;fontColor=#006EAF;fillColor=none;" vertex="1" parent="1">
                    <mxGeometry x="220" y="320" width="120" height="68" as="geometry"/>
                </mxCell>
                <mxCell id="20" value="Piso&#10;Número" style="text;strokeColor=none;fillColor=none;align=left;verticalAlign=top;spacingLeft=4;spacingRight=4;overflow=hidden;rotatable=0;points=[[0,0.5],[1,0.5]];portConstraint=eastwest;fontFamily=Helvetica;fontSize=12;fontColor=#006EAF;startSize=26;" vertex="1" parent="19">
                    <mxGeometry y="26" width="120" height="34" as="geometry"/>
                </mxCell>
                <mxCell id="21" value="" style="line;strokeWidth=1;fillColor=none;align=left;verticalAlign=middle;spacingTop=-1;spacingLeft=3;spacingRight=3;rotatable=0;labelPosition=right;points=[];portConstraint=eastwest;strokeColor=inherit;fontFamily=Helvetica;fontSize=12;fontColor=#006EAF;startSize=26;" vertex="1" parent="19">
                    <mxGeometry y="60" width="120" height="8" as="geometry"/>
                </mxCell>
                <mxCell id="23" value="Edificio" style="swimlane;fontStyle=0;align=center;verticalAlign=top;childLayout=stackLayout;horizontal=1;startSize=26;horizontalStack=0;resizeParent=1;resizeParentMax=0;resizeLast=0;collapsible=1;marginBottom=0;strokeColor=#006EAF;fontFamily=Helvetica;fontSize=12;fontColor=#006EAF;fillColor=none;" vertex="1" parent="1">
                    <mxGeometry x="40" y="240" width="120" height="58" as="geometry"/>
                </mxCell>
                <mxCell id="24" value="Ubicación" style="text;strokeColor=none;fillColor=none;align=left;verticalAlign=top;spacingLeft=4;spacingRight=4;overflow=hidden;rotatable=0;points=[[0,0.5],[1,0.5]];portConstraint=eastwest;fontFamily=Helvetica;fontSize=12;fontColor=#006EAF;startSize=26;" vertex="1" parent="23">
                    <mxGeometry y="26" width="120" height="24" as="geometry"/>
                </mxCell>
                <mxCell id="25" value="" style="line;strokeWidth=1;fillColor=none;align=left;verticalAlign=middle;spacingTop=-1;spacingLeft=3;spacingRight=3;rotatable=0;labelPosition=right;points=[];portConstraint=eastwest;strokeColor=inherit;fontFamily=Helvetica;fontSize=12;fontColor=#006EAF;startSize=26;" vertex="1" parent="23">
                    <mxGeometry y="50" width="120" height="8" as="geometry"/>
                </mxCell>
                <mxCell id="26" value="División" style="swimlane;fontStyle=0;align=center;verticalAlign=top;childLayout=stackLayout;horizontal=1;startSize=26;horizontalStack=0;resizeParent=1;resizeParentMax=0;resizeLast=0;collapsible=1;marginBottom=0;strokeColor=#006EAF;fontFamily=Helvetica;fontSize=12;fontColor=#006EAF;fillColor=none;" vertex="1" parent="1">
                    <mxGeometry x="400" y="240" width="120" height="58" as="geometry"/>
                </mxCell>
                <mxCell id="27" value="Nombre" style="text;strokeColor=none;fillColor=none;align=left;verticalAlign=top;spacingLeft=4;spacingRight=4;overflow=hidden;rotatable=0;points=[[0,0.5],[1,0.5]];portConstraint=eastwest;fontFamily=Helvetica;fontSize=12;fontColor=#006EAF;startSize=26;" vertex="1" parent="26">
                    <mxGeometry y="26" width="120" height="24" as="geometry"/>
                </mxCell>
                <mxCell id="28" value="" style="line;strokeWidth=1;fillColor=none;align=left;verticalAlign=middle;spacingTop=-1;spacingLeft=3;spacingRight=3;rotatable=0;labelPosition=right;points=[];portConstraint=eastwest;strokeColor=inherit;fontFamily=Helvetica;fontSize=12;fontColor=#006EAF;startSize=26;" vertex="1" parent="26">
                    <mxGeometry y="50" width="120" height="8" as="geometry"/>
                </mxCell>
                <mxCell id="29" value="" style="endArrow=diamondThin;endFill=1;endSize=24;html=1;fontFamily=Helvetica;fontSize=12;fontColor=#006EAF;fillColor=#1ba1e2;strokeColor=#006EAF;" edge="1" parent="1" source="26" target="10">
                    <mxGeometry width="160" relative="1" as="geometry">
                        <mxPoint x="420" y="190" as="sourcePoint"/>
                        <mxPoint x="580" y="190" as="targetPoint"/>
                    </mxGeometry>
                </mxCell>
                <mxCell id="30" value="1..*" style="text;html=1;align=center;verticalAlign=middle;resizable=0;points=[];autosize=1;strokeColor=none;fillColor=none;fontSize=12;fontFamily=Helvetica;fontColor=#006EAF;" vertex="1" parent="1">
                    <mxGeometry x="460" y="210" width="40" height="30" as="geometry"/>
                </mxCell>
                <mxCell id="31" value="" style="endArrow=diamondThin;endFill=1;endSize=24;html=1;fontFamily=Helvetica;fontSize=12;fontColor=#006EAF;fillColor=#1ba1e2;strokeColor=#006EAF;" edge="1" parent="1" source="16" target="26">
                    <mxGeometry width="160" relative="1" as="geometry">
                        <mxPoint x="390" y="200" as="sourcePoint"/>
                        <mxPoint x="470" y="118" as="targetPoint"/>
                    </mxGeometry>
                </mxCell>
                <mxCell id="32" value="1..*" style="text;html=1;align=center;verticalAlign=middle;resizable=0;points=[];autosize=1;strokeColor=none;fillColor=none;fontSize=12;fontFamily=Helvetica;fontColor=#006EAF;" vertex="1" parent="1">
                    <mxGeometry x="340" y="188" width="40" height="30" as="geometry"/>
                </mxCell>
                <mxCell id="33" value="/trabaja para" style="endArrow=none;startArrow=none;endFill=0;startFill=0;endSize=8;html=1;verticalAlign=bottom;labelBackgroundColor=none;strokeWidth=1;fontFamily=Helvetica;fontSize=12;fontColor=#006EAF;fillColor=#1ba1e2;strokeColor=#006EAF;" edge="1" parent="1" source="6" target="10">
                    <mxGeometry width="160" relative="1" as="geometry">
                        <mxPoint x="210" y="90" as="sourcePoint"/>
                        <mxPoint x="370" y="90" as="targetPoint"/>
                    </mxGeometry>
                </mxCell>
                <mxCell id="34" value="Empleado" style="text;html=1;align=left;verticalAlign=middle;resizable=0;points=[];autosize=1;strokeColor=none;fillColor=none;fontSize=12;fontFamily=Helvetica;fontColor=#006EAF;" vertex="1" parent="1">
                    <mxGeometry x="174" y="58" width="80" height="30" as="geometry"/>
                </mxCell>
                <mxCell id="36" value="Empleador" style="text;html=1;align=right;verticalAlign=middle;resizable=0;points=[];autosize=1;strokeColor=none;fillColor=none;fontSize=12;fontFamily=Helvetica;fontColor=#006EAF;" vertex="1" parent="1">
                    <mxGeometry x="316" y="58" width="80" height="30" as="geometry"/>
                </mxCell>
                <mxCell id="37" value="trabaja en" style="endArrow=none;startArrow=none;endFill=0;startFill=0;endSize=8;html=1;verticalAlign=bottom;labelBackgroundColor=none;strokeWidth=1;fontFamily=Helvetica;fontSize=12;fontColor=#006EAF;fillColor=#1ba1e2;strokeColor=#006EAF;" edge="1" parent="1" source="6" target="16">
                    <mxGeometry x="0.2307" width="160" relative="1" as="geometry">
                        <mxPoint x="170" y="94" as="sourcePoint"/>
                        <mxPoint x="410" y="94" as="targetPoint"/>
                        <Array as="points">
                            <mxPoint x="105" y="190"/>
                        </Array>
                        <mxPoint as="offset"/>
                    </mxGeometry>
                </mxCell>
                <mxCell id="38" value="1..*" style="text;html=1;align=center;verticalAlign=middle;resizable=0;points=[];autosize=1;strokeColor=none;fillColor=none;fontSize=12;fontFamily=Helvetica;fontColor=#006EAF;" vertex="1" parent="1">
                    <mxGeometry x="60" y="128" width="40" height="30" as="geometry"/>
                </mxCell>
                <mxCell id="39" value="ocupa" style="endArrow=diamondThin;endFill=0;endSize=24;html=1;fontFamily=Helvetica;fontSize=12;fontColor=#006EAF;fillColor=#1ba1e2;strokeColor=#006EAF;labelBackgroundColor=none;" edge="1" parent="1" source="19" target="16">
                    <mxGeometry x="-0.2157" y="-30" width="160" relative="1" as="geometry">
                        <mxPoint x="250" y="280" as="sourcePoint"/>
                        <mxPoint x="410" y="280" as="targetPoint"/>
                        <mxPoint as="offset"/>
                    </mxGeometry>
                </mxCell>
                <mxCell id="40" value="1..*" style="text;html=1;align=center;verticalAlign=middle;resizable=0;points=[];autosize=1;strokeColor=none;fillColor=none;fontSize=12;fontFamily=Helvetica;fontColor=#006EAF;" vertex="1" parent="1">
                    <mxGeometry x="240" y="290" width="40" height="30" as="geometry"/>
                </mxCell>
                <mxCell id="41" value="" style="endArrow=diamondThin;endFill=1;endSize=24;html=1;fontFamily=Helvetica;fontSize=12;fontColor=#006EAF;fillColor=#1ba1e2;strokeColor=#006EAF;" edge="1" parent="1" source="19" target="23">
                    <mxGeometry width="160" relative="1" as="geometry">
                        <mxPoint x="470" y="250" as="sourcePoint"/>
                        <mxPoint x="470" y="128" as="targetPoint"/>
                    </mxGeometry>
                </mxCell>
                <mxCell id="42" value="1..*" style="text;html=1;align=center;verticalAlign=middle;resizable=0;points=[];autosize=1;strokeColor=none;fillColor=none;fontSize=12;fontFamily=Helvetica;fontColor=#006EAF;" vertex="1" parent="1">
                    <mxGeometry x="180" y="320" width="40" height="30" as="geometry"/>
                </mxCell>
                <mxCell id="43" value="/ocupa" style="endArrow=diamondThin;endFill=0;endSize=24;html=1;fontFamily=Helvetica;fontSize=12;fontColor=#006EAF;fillColor=#1ba1e2;strokeColor=#006EAF;labelBackgroundColor=none;" edge="1" parent="1" source="23" target="16">
                    <mxGeometry x="-0.4454" y="16" width="160" relative="1" as="geometry">
                        <mxPoint x="290" y="330" as="sourcePoint"/>
                        <mxPoint x="290" y="228" as="targetPoint"/>
                        <mxPoint as="offset"/>
                    </mxGeometry>
                </mxCell>
                <mxCell id="44" value="1..*" style="text;html=1;align=center;verticalAlign=middle;resizable=0;points=[];autosize=1;strokeColor=none;fillColor=none;fontSize=12;fontFamily=Helvetica;fontColor=#006EAF;" vertex="1" parent="1">
                    <mxGeometry x="207" y="218" width="40" height="30" as="geometry"/>
                </mxCell>
                <mxCell id="45" value="{Edad=Hoy-Fecha de nacimiento}" style="text;html=1;align=center;verticalAlign=middle;resizable=0;points=[];autosize=1;strokeColor=none;fillColor=none;fontSize=12;fontFamily=Helvetica;fontColor=#006EAF;" vertex="1" parent="1">
                    <mxGeometry x="40" y="10" width="200" height="30" as="geometry"/>
                </mxCell>
            </root>
        </mxGraphModel>
    </diagram>
</mxfile>